<svg width="33" height="31" viewBox="0 0 33 31" fill="none" xmlns="http://www.w3.org/2000/svg">
<path d="M10.8626 0.886963L15.73 3.69717V9.3176L10.8626 12.1278L5.99518 9.3176V3.69717L10.8626 0.886963Z" fill="#FCD53B"/>
<path d="M10.8626 18.8723L15.73 21.6825V27.3029L10.8626 30.1132L5.99518 27.3029V21.6825L10.8626 18.8723Z" fill="#FCD53B"/>
<path d="M5.62042 9.87964L10.4879 12.6898V18.3103L5.62042 21.1205L0.752994 18.3103V12.6898L5.62042 9.87964Z" fill="#FCD53B"/>
<path d="M16.1126 9.87964L20.98 12.6898V18.3103L16.1126 21.1205L11.2452 18.3103V12.6898L16.1126 9.87964Z" fill="#FCD53B"/>
<path d="M26.6048 9.87964L31.4722 12.6898V18.3103L26.6048 21.1205L21.7374 18.3103V12.6898L26.6048 9.87964Z" fill="#FCD53B"/>
<path d="M21.3548 0.886963L26.2222 3.69717V9.3176L21.3548 12.1278L16.4874 9.3176V3.69717L21.3548 0.886963Z" fill="#FCD53B"/>
<path d="M21.3548 18.8723L26.2222 21.6825V27.3029L21.3548 30.1132L16.4874 27.3029V21.6825L21.3548 18.8723Z" fill="#FCD53B"/>
</svg>
