<svg version="1.2" xmlns="http://www.w3.org/2000/svg" viewBox="0 0 2160 833" width="2160" height="833">
	<title>logo-dark</title>
	<style>
		.s0 { fill: #ffffff }
		.s1 { fill: #fcd53b }
	</style>
	<g id="Layer_x0020_1">
		<g id="_362912688">
			<path fill-rule="evenodd" class="s0" d="m769 437h-166v-45h166z"/>
			<g>
				<path class="s1" d="m20 318l65-37 54-31v-62-75-14l12-7 65-38 66-38 12-7 12 7 65 38 54 31 53-31 65-38 12-7 12 7 66 38 65 38 12 7v14 75 34l-24-14-24 14v-34-62l-53-30-54-31-53 30-54 31v62 62l54 31 29 17-24 14v27l-29-17-54-31-53 31-53 31v62 61l53 31 54 31 53-31 29-17v28l24 14-29 17-54 31v61 62l54 31 53 31 54-31 53-31v-62-61l-53-31-6-3v-1-55l30 17 53 31 54-31 29-17v56l-5 3-54 31v61 76 14l-12 6-65 38-66 38-12 7-12-7-65-38-54-31-53 31-65 38-12 7-12-7-66-38-65-37-12-7v-14-76-61l-54-31-65-38-12-7v-14-75-76-14zm381 385v-62-61l-54-31-53-31-54 31-53 31v61 62l53 31 54 31 53-31zm-238-165l53-31 54-31v-61-62l-54-31-53-31-53 31-54 31v62 61l54 31zm238-288v-62-62l-54-30-53-31-54 30-53 31v62 62l53 31 54 30 53-30z"/>
			</g>
			<path fill-rule="evenodd" class="s0" d="m2153 374c0 10-1 19-4 27-2 8-6 15-10 22q-6 9-15 15c-6 5-11 8-18 11q-9 4.5-18 6c-6 1-12 2-18 2h-18v81h-45v-81h-18c-6 0-12-1-18-2-6-1-12-3-19-6-6-3-12-6-17-11q-9-6-15-15c-4-7-8-14-11-22q-3-12-3-27v-83h44v83c0 6 1 11 3 16 2 4 5 8 8 12 3 3 7 5 12 7 5 2 10 3 16 3h81c4-1 9-2 13-3 5-1 9-3 13-5 3-3 6-7 9-11 2-5 3-11 3-19v-83h45zm-1610-56l66-37 65-38 12-7 12 7 66 38 65 37 12 7v179l-48 28v-179l-53-31-54-31-53 31-54 31v179l-48-28v-179zm569 198c0 3 0 6-1 9-2 3-3 5-5 7-2 2-5 4-7 5-3 1-6 1-9 1h-162c-4 0-9 0-14-1-4-1-9-3-14-5-4-2-9-4-13-8q-6-4.5-12-12c-3-4-5-10-7-16q-3-9-3-21v-121c0-4 0-9 1-14 1-4 3-9 5-14 2-4 4-9 8-13 3-4 7-8 12-11 5-4 10-6 16-8q9-3 21-3h184v45h-184c-6 0-11 1-14 4-3 3-4 8-4 14v121c0 6 1 11 4 14 4 3 8 5 14 5h139v-57h-113v-45h136c3 0 6 1 9 2 2 1 5 3 7 5 2 2 3 4 5 7 1 3 1 6 1 9zm249 22h-162c-6 0-13-1-20-3-8-2-14-6-21-11-6-5-11-11-15-19-5-8-7-18-7-30v-162c0-3 1-6 2-8 1-3 3-6 5-8 2-2 4-3 7-4 3-2 6-2 9-2h202v45h-180v139c0 6 2 11 5 14 3 3 8 5 13 5h162zm272-19c0 3-1 6-2 9-1 3-3 5-5 7-2 2-4 4-7 5-3 1-6 2-9 2-3 0-6-1-8-2-3-1-6-2-8-5l-164-171v174h-45v-228c0-5 1-9 4-12 3-4 6-7 10-9 4-2 9-2 13-1 5 1 8 3 12 6l164 171v-174h45zm249 19h-162c-5 0-9 0-14-1-5-1-9-3-14-5-5-2-9-4-13-8-5-3-8-7-12-12-3-4-6-10-7-16q-3-9-3-21v-121c0-4 0-9 1-14 1-4 3-9 5-14 2-4 4-9 8-13 3-4 7-8 12-11 4-4 10-6 16-8q9-3 21-3h162v45h-162c-6 0-11 1-14 4-3 3-5 8-5 14v121c0 6 2 11 5 14 3 3 8 5 14 5h162z"/>
			<path fill-rule="evenodd" class="s0" d="m1337 437h-132v-45h132z"/>
			<path fill-rule="evenodd" class="s1" d="m922 679c0 1-1 2-2 3-1 1-3 2-5 2-1 1-3 1-6 1-3 0-6 0-8-1-2 0-4-1-6-2-1-1-3-3-3-5-1-2-2-4-2-7h-25c0 4 0 7 1 10 2 3 3 6 5 9 2 2 5 4 8 6 3 2 6 3 9 4 3 2 7 3 10 3 4 1 8 1 11 1 6 0 11-1 16-2 5-1 9-3 13-5 3-3 6-5 8-9q3-4.5 3-12c0-4-1-7-3-11-1-3-4-6-7-9-3-2-7-5-11-7-4-2-9-3-15-5-3-1-6-2-8-3q-4.5-1.5-6-3c-2-1-3-2-4-3-1-1-2-3-2-4 0-2 1-3 1-4q1.5-1.5 3-3c1-1 3-2 5-2 2-1 4-1 6-1 3 0 5 0 7 1 2 0 3 1 4 2 2 2 2 3 3 4 1 2 1 4 1 6h26c0-5-1-9-3-13-2-4-5-7-9-10q-4.5-3-12-6c-5-1-10-2-16-2-6 0-12 1-17 2q-7.5 1.5-12 6c-4 2-7 5-9 8-2 4-3 7-3 12 0 4 1 8 3 11 2 4 5 6 8 9q4.5 3 12 6c4 2 8 4 13 5 4 1 7 3 10 4 2 1 4 2 5 3q3 1.5 3 3c1 2 1 3 1 4 0 2 0 3-1 4zm270-76h-22l-15 62-12-62h-26l23 99h27l14-56 14 56h26l23-99h-25l-13 62zm288 99h27l-39-99h-24l-39 99h27l6-19h36zm-24-71l11 34h-22zm280 71h27v-1l-22-40c3-1 5-3 7-4q4.5-3 6-6c2-2 3-5 4-8 1-3 1-6 1-10 0-5 0-9-2-13-2-3-5-7-8-9-4-2-8-4-13-6-5-1-11-2-17-2h-42v99h26v-35h14zm-33-80h16c5 0 9 1 11 3 3 3 4 6 4 10 0 4-1 8-4 10-2 2-6 4-11 4h-16zm234-19v99h26v-23l-3-47 26 70h17l26-70-3 47v23h26v-99h-34l-23 69-24-69z"/>
		</g>
	</g>
</svg>
