<svg version="1.2" xmlns="http://www.w3.org/2000/svg" viewBox="0 0 2878 1099" width="2878" height="1099">
	<title>logo-light</title>
	<style>
		.s0 { fill: #163166 }
		.s1 { fill: #fbd53b }
	</style>
	<g id="Layer_x0020_1">
		<g id="_379388280">
			<path fill-rule="evenodd" class="s0" d="m1024.5 578h-220.5v-60.5h220.5z"/>
			<g>
				<path fill-rule="evenodd" class="s1" d="m26.5 419.5l87-50.5 71.5-41v-201.5l16-9 87-50.5 87-50 16.5-9.5 15.5 9 87.5 50.5 71 41 71-41 87.5-50 16-9.5 16 9 174 101 16 9v164.5l-32-18.5-31.5 18.5v-127.5l-143-82-142 82v164.5l71 41 39.5 22.5-32 18.5v37l-39.5-22.5-71-41-71 41-71.5 41v164.5l71.5 41 71 41 71-41 39.5-22.5v36.5l32 18.5-39.5 23-71 41v164.5l71 41 71.5 41 71-41 71.5-41v-164.5h-0.5l-71-41-7-4v-74l39 22.5 71.5 41 71-41 39-22.5v73.5l-7 4.5-71.5 41v201l-16 9.5-87 50-87 50.5-16.5 9.5-15.5-9.5-87.5-50-71-41.5-71 41.5-87.5 50-16 9.5-16-9.5-87-50-87-50.5-16-9v-201.5l-71.5-41-87-50.5-16-9v-238.5zm507 512.5v-164.5l-71-41-71.5-41-71 41-71.5 41v164.5l143 82zm-316.5-220l71-41 71.5-41v-164.5l-143-82-142 82v164.5l71 41zm316.5-384v-164.5l-71-41-71.5-41-71 41-71.5 41v164.5l143 82z"/>
			</g>
			<path fill-rule="evenodd" class="s0" d="m2869 493c0 14-1.5 26-5 36.5q-5.3 16.5-13.5 28.5c-6 8.5-12.5 15.5-20 21-7.5 6-15.5 11-23.5 14.5-8 4-16.5 6.5-25 8.5-8 1.5-16 2.5-23.5 2.5h-24v108h-60.5v-108h-24c-7 0-15-1-23.5-2.5-8-2-16.5-4.5-24.5-8.5-8.5-3.5-16.5-8.5-24-14.5q-11.3-8.3-19.5-21c-6-8-10.5-17.5-14-28.5-3.5-10.5-5-23-5-36.5v-110.5h59.5v110.5c0 8 1.5 15 4 21 2.5 6.5 5.5 11.5 10 16q6.8 6.8 16.5 10.5c6 2.5 13.5 3.5 21 3.5h108c5.5-1 11.5-2 17.5-3.5q9-2.3 16.5-7.5 7.5-5.3 12-15c3.5-6 5-14.5 5-25v-110.5h59.5zm-2145-73.5l87-50.5 87-50 16.5-9.5 15.5 9 87.5 50.5 87 50.5 16 9v238.5l-16 9-48 27.5v-238l-71-41-71.5-41-71 41-71.5 41v238.5l-47.5-28-16-9v-238.5zm758 263c0 4.5-0.5 8.5-2 12-2 3.5-4 7-6.5 9.5-2.5 2.5-6 5-9.5 6.5-4 1.5-8 2-12 2h-216c-5.5 0-11.5-0.5-18-2-6-1-12.5-3-18.5-6q-9.8-3.8-18-10.5c-5.5-4.5-10.5-10-15-16-4.5-6-8-13.5-10.5-21.5-2.5-8.5-4-17.5-4-28v-162c0-5.5 0.5-11.5 2-17.5 1.5-6.5 3.5-13 6-19 3-6 6.5-12 11-18 4.5-5.5 9.5-10.5 16-15 6-4.5 13.5-8 21.5-10.5 8-2.5 17.5-4 27.5-4h246v60h-246c-8 0-14 2-18 6.5q-6 6-6 18v161.5q0 12 6 18c4.5 4 10.5 6.5 18 6.5h186v-75h-150.5v-60.5h180.5c4 0 8 1 12 2.5 3.5 1.5 7 4 9.5 6.5 2.5 3 4.5 6 6.5 9.5 1.5 3.5 2 7.5 2 11.5zm331.5 30h-215.5c-8.5 0-17.5-1.5-27.5-4-9.5-3-18.5-8-27-14.5-8.5-7-15.5-15.5-21-26-5.5-11-8.5-24-8.5-39.5v-215.5c0-4.5 1-8 2.5-12 1.5-3.5 3.5-7 6-9.5 3-3 6-5 9.5-6.5 4-1.5 8-2.5 12-2.5h269.5v60h-239.5v186q0 12 6 18c4 4.5 10.5 6.5 18.5 6.5h215zm362-25.5c0 4.5-1 8.5-2.5 12-1.5 4-3.5 7-6.5 9.5-2.5 3-6 5-9.5 6.5-3.5 1.5-7.5 2.5-11.5 2.5-4 0-7.5-1-11.5-2.5-3.5-1-7-3.5-10-6.5l-218.5-228v232h-60v-304.5c0-6 2-11.5 5.5-16.5 3.5-5 7.5-8.5 13-11 6-2.5 11.5-3 17.5-2 6 1.5 11 4 15.5 8.5l218.5 228v-232.5h60zm332 25.5h-216c-5.5 0-11.5-0.5-18-2-6.5-1-12.5-3-18.5-6q-9.8-3.8-18-10.5c-6-4.5-11-10-15-16-4.5-6-8-13.5-10.5-21.5-3-8.5-4-17.5-4-28v-162c0-5.5 0.5-11.5 2-17.5 1-6.5 3-13 6-19 2.5-6 6.5-12 11-18 4.5-5.5 9.5-10.5 16-15 6-4.5 13-8 21.5-10.5 8-2.5 17-4 27.5-4h216v60h-216c-8 0-14 2-18 6.5-4 4-6.5 10-6.5 18v161.5c0 8 2.5 14 6.5 18 4.5 4 10 6.5 18 6.5h216z"/>
			<path fill-rule="evenodd" class="s0" d="m1781.5 578h-175.5v-60.5h175.5z"/>
			<path fill-rule="evenodd" class="s1" d="m1228.5 900.5c-0.5 1.5-1.5 2.5-3 4-1.5 1-3.5 2-6 2.5-2 1-5 1-8 1-4 0-7.5 0-11-1-3-0.5-5.5-1.5-7.5-3.5-2-1.5-4-3.5-5-6-1-3-1.5-6-1.5-10h-34.5c0 5.5 1 10 2.5 14 1.5 4.5 4 8 6.5 11.5 3 3 6 6 10 8.5q5.3 3.8 12 6c4.5 1.5 9 2.5 14 3.5 4.5 0.5 9.5 1 14.5 1 8 0 15-1 21.5-2.5 6.5-1.5 12-4 16.5-7 4.5-3.5 8-7 10.5-11.5 2.5-5 4-10 4-16 0-5.5-1-10.5-3.5-14.5q-3-6.8-9-12-6-5.3-15-9c-6-3-12.5-5.5-20-7.5-4-1.5-8-2.5-11-3.5-3-1.5-6-3-8-4-2.5-1.5-4-3-5.5-4.5-1-2-1.5-3.5-1.5-5.5 0-2 0.5-3.5 1-5 1-1.5 2-3 4-4.5 1.5-1 3.5-2 6-2.5 2.5-1 5.5-1 8.5-1 3.5 0 6.5 0 8.5 1 2.5 1 4.5 2 6.5 3.5 1.5 1.5 2.5 3 3.5 5.5 1 2 1.5 4 1.5 6.5h34c0-6-1.5-11.5-4-16.5-2.5-5-6.5-9.5-11-13-4.5-3.5-10.5-6-17-8q-9.8-3-21-3c-8 0-15 1-22 2.5-6.5 2-12.5 4.5-17 7.5-5 3-9 7-11.5 11.5-3 4.5-4 9.5-4 15 0 6 1 11 4 15.5 2.5 4.5 6 8.5 10.5 11.5 4.5 3.5 10 6.5 15.5 8.5 6 2.5 12 5 18 6.5 5.5 2 9.5 3.5 13 5 3 1 6 2.5 7.5 4 2 1.5 3 3 4 5 0.5 1.5 0.5 3.5 0.5 5.5 0 1.5 0 3-1 5zm359-101h-29l-19.5 82-16-82h-34l30 130.5h35.5l18.5-74.5 19 74.5h35.5l30-130.5h-34l-16 82zm384.5 130.5h36.5l-52.5-130.5h-32l-52 130.5h36.5l8-24.5h47zm-32-94l15.5 45.5h-30.5zm373 94h36.5v-1l-29.5-53c3.5-1.5 7-3.5 10-5.5 3-2.5 5.5-5 8-8 2-3 3.5-6.5 5-10.5 1-3.5 1.5-8 1.5-13 0-6.5-1-12.5-3.5-17.5-2.5-4.5-6.5-9-11-12-4.5-3.5-10.5-6-17-7.5-6.5-2-14-2.5-22-2.5h-56v130.5h34.5v-46h18.5zm-43.5-106.5h21.5c6.5 0 11 1.5 14.5 5 3.5 3 5 7.5 5 13 0 6-1.5 10-5 13.5-3.5 3-8 4.5-14.5 4.5h-21.5zm312-24v130.5h34v-30.5l-3-62.5 34 93h22.5l34.5-93-3.5 62.5v30.5h34.5v-130.5h-45l-31.5 91-31.5-91z"/>
		</g>
	</g>
</svg>
